<svg width="28" height="25" viewBox="0 0 28 25" fill="none" xmlns="http://www.w3.org/2000/svg">
<path d="M27.5149 20.4502L21.8931 16.313C21.6394 16.1263 21.3206 16.0472 21.0045 16.091L20.1994 16.2027C21.3156 14.307 21.815 12.0482 21.477 9.71309C20.6731 4.1582 15.4234 0.294867 9.74851 1.0818C4.07357 1.86872 0.126746 7.00731 0.93068 12.5622C1.73462 18.1171 6.98425 21.9804 12.6592 21.1935C14.7596 20.9022 16.6218 20.017 18.0952 18.7337C18.3402 18.5203 18.7407 18.6553 18.7873 18.9777V18.9777C18.8321 19.2871 18.9983 19.5649 19.252 19.7516L24.8738 23.8888C25.4038 24.2789 26.1546 24.1748 26.5481 23.6566L27.7478 22.0946C28.1463 21.5758 28.04 20.841 27.5149 20.4502ZM12.0994 17.3259C8.60755 17.8101 5.37727 15.4371 4.8819 12.0143C4.38722 8.59627 6.81142 5.43432 10.3083 4.94943C13.8001 4.46522 17.0304 6.83814 17.5258 10.261C18.0205 13.679 15.5963 16.841 12.0994 17.3259Z" fill="black" fill-opacity="0.37"/>
</svg>
